<svg xmlns="http://www.w3.org/2000/svg" width="32" height="32" fill="none"><rect width="32" height="32" fill="#000" rx="3"/><path fill="#fff" d="M6.95 19.484C6.632 21.157 5.662 21.996 4.036 22 2.68 22 2 21.413 2 20.24c0-.23.026-.481.079-.756l1.315-6.974C3.71 10.837 4.679 10 6.3 10c1.362 0 2.043.587 2.043 1.76 0 .23-.026.48-.079.75l-.31 1.65h-1.88l.311-1.65c.083-.434-.06-.652-.429-.656h-.011c-.365 0-.589.219-.672.656l-1.315 6.974c-.082.438.06.656.43.656.372 0 .6-.218.682-.656l.31-1.65h1.88l-.31 1.65Zm5.483 0c-.316 1.673-1.287 2.512-2.912 2.516-1.359 0-2.038-.587-2.038-1.76 0-.23.027-.481.08-.756l1.314-6.974c.316-1.673 1.285-2.51 2.907-2.51 1.362 0 2.043.587 2.043 1.76 0 .23-.027.48-.08.75l-1.314 6.974Zm-.565-6.974c.083-.434-.06-.652-.428-.656h-.012c-.365 0-.589.219-.671.656l-1.315 6.974c-.083.438.06.656.429.656.372 0 .6-.218.682-.656l1.315-6.974Zm3.102-2.33h2.602c1.252.004 1.879.58 1.879 1.726 0 .236-.028.5-.085.79l-1.247 6.608c-.316 1.67-1.262 2.506-2.839 2.51h-2.505L14.97 10.18Zm1.53 1.854-1.496 7.926h.559c.368 0 .594-.219.677-.656l1.247-6.608c.083-.441-.06-.662-.429-.662h-.559Zm4.123-1.854h4.424l-.35 1.854h-2.545l-.57 3.033h2.19l-.356 1.86h-2.19l-.57 3.033h2.546l-.35 1.854h-4.425l2.196-11.634Zm5.031 0h2.466c1.253.004 1.88.58 1.88 1.726 0 .236-.028.5-.085.79l-.321 1.715c-.2 1.053-.74 1.735-1.62 2.045l.801 5.358h-2.048l-.345-5.003h-.101l-.943 5.003H23.46l2.195-11.634Zm1.53 1.854-.57 3.033h.226c.203 0 .336-.011.4-.035.256-.096.414-.304.474-.621l.322-1.715c.083-.441-.06-.662-.429-.662h-.423Z"/></svg>