<svg width="151" height="22" viewBox="0 0 151 22" fill="none" xmlns="http://www.w3.org/2000/svg">
<path d="M36.1511 11.3207C36.1511 7.43375 38.1587 4.89078 41.6274 4.89078C45.2801 4.89078 47.126 7.6847 47.126 11.3542C47.126 15.2188 45.1184 17.7841 41.6664 17.7841C38.0304 17.7841 36.1511 15.0292 36.1511 11.3207ZM45.821 11.4099C45.821 8.0416 44.2651 6.07304 41.6329 6.07304C39.0007 6.07304 37.4616 8.00814 37.4616 11.2649C37.4616 14.5217 39.0175 16.6018 41.6664 16.6018C44.3153 16.6018 45.821 14.65 45.821 11.4099Z" fill="#6F7779"/>
<path d="M56.9187 12.8431C56.9187 15.9605 55.3237 17.7506 52.3514 17.7506C51.5651 17.7506 50.9349 17.6447 50.3995 17.4439V20.9684H49.1448V8.57697C50.0761 8.27026 51.1524 8.07507 52.2789 8.07507C55.4297 8.07507 56.9187 9.77596 56.9187 12.8376V12.8431ZM55.6472 12.9156C55.6472 10.5679 54.5932 9.19041 52.212 9.19041C51.5874 9.19041 50.9572 9.27964 50.4051 9.4079V16.3899C50.9962 16.5851 51.6376 16.6743 52.2845 16.6743C54.4872 16.6743 55.6528 15.3303 55.6528 12.9156H55.6472Z" fill="#6F7779"/>
<path d="M65.9808 13.3451H59.3389C59.5007 15.4921 60.6271 16.6409 62.6682 16.6409C63.633 16.6409 64.7093 16.429 65.6741 15.8713C65.6406 16.1948 65.5681 16.6744 65.4789 17.0703C64.581 17.5889 63.6497 17.7507 62.6348 17.7507C59.6457 17.7507 58.0507 15.9438 58.0507 12.8655C58.0507 10.1998 59.2664 8.08627 62.2054 8.08627C64.8933 8.08627 66.0533 9.93215 66.0533 12.2409C66.0533 12.6145 66.0365 12.9938 65.9808 13.3507V13.3451ZM59.3389 12.2186H64.7818V12.1461C64.7818 10.3727 63.923 9.17372 62.1496 9.17372C60.3762 9.17372 59.4839 10.356 59.3389 12.2186Z" fill="#6F7779"/>
<path d="M75.4165 11.4825V17.5332H74.1618V11.7167C74.1618 10.0493 73.5372 9.19045 71.3344 9.19045C70.6875 9.19045 69.9402 9.27967 69.2599 9.4414V17.5332H68.0051V8.58259C69.2041 8.25914 70.3696 8.08069 71.3734 8.08069C74.4016 8.08069 75.4221 9.31871 75.4221 11.4825H75.4165Z" fill="#6F7779"/>
<path d="M87.3449 14.505H81.8129L80.7756 17.5332H79.4484L83.7647 5.21428C84.2108 5.10832 84.802 5.05255 85.3373 5.05255L89.7039 17.5332H88.3766L87.3394 14.505H87.3449ZM86.949 13.3228L84.5845 6.3575L82.2032 13.3228H86.949Z" fill="#6F7779"/>
<path d="M90.3006 12.9491C90.3006 10.0102 91.8398 8.08069 95.0296 8.08069C95.7658 8.08069 96.4628 8.20338 97.1599 8.51009C97.1432 8.88373 97.0874 9.24621 97.0149 9.60312C96.3346 9.29641 95.6208 9.19045 95.0296 9.19045C92.7376 9.19045 91.5721 10.5679 91.5721 12.9157C91.5721 15.4754 92.9328 16.6409 94.7787 16.6409C95.604 16.6409 96.4461 16.3899 97.1432 15.9271C97.1097 16.284 97.054 16.7301 96.9815 17.1261C96.3346 17.5722 95.5315 17.7507 94.6727 17.7507C92.0405 17.7507 90.3062 16.033 90.3062 12.9547L90.3006 12.9491Z" fill="#6F7779"/>
<path d="M105.843 8.58259V17.5332H104.677L104.644 16.8361C104.036 17.3714 103.211 17.7507 102.207 17.7507C99.664 17.7507 98.0914 16.0498 98.0914 12.9882C98.0914 9.92657 99.6473 8.08069 102.854 8.08069C103.964 8.08069 104.895 8.22568 105.843 8.58259ZM102.313 16.7134C103.244 16.7134 103.997 16.3732 104.588 15.7988V9.40794C104.053 9.26295 103.495 9.19045 102.854 9.19045C100.456 9.19045 99.3629 10.5846 99.3629 12.9882C99.3629 15.3917 100.367 16.7134 102.319 16.7134H102.313Z" fill="#6F7779"/>
<path d="M115.457 5.03582V17.5332H114.292L114.236 16.7803C113.628 17.3714 112.786 17.7451 111.514 17.7451C109.239 17.7451 107.65 16.0442 107.65 12.9826C107.65 9.921 109.206 8.07511 112.323 8.07511C112.987 8.07511 113.611 8.16434 114.202 8.32606V5.2087C114.576 5.08601 115.045 5.03024 115.457 5.03024V5.03582ZM111.844 16.7078C112.792 16.7078 113.6 16.3342 114.208 15.7431V9.47486C113.561 9.29641 112.881 9.19045 112.273 9.19045C110.014 9.19045 108.927 10.5344 108.927 12.9882C108.927 15.2969 109.914 16.7134 111.844 16.7134V16.7078Z" fill="#6F7779"/>
<path d="M125.149 13.3451H118.508C118.669 15.4921 119.796 16.6409 121.837 16.6409C122.802 16.6409 123.878 16.429 124.843 15.8713C124.809 16.1948 124.737 16.6744 124.647 17.0703C123.755 17.5889 122.824 17.7507 121.803 17.7507C118.814 17.7507 117.219 15.9438 117.219 12.8655C117.219 10.1998 118.435 8.08627 121.374 8.08627C124.062 8.08627 125.222 9.93215 125.222 12.2409C125.222 12.6145 125.205 12.9938 125.149 13.3507V13.3451ZM118.508 12.2186H123.95V12.1461C123.95 10.3727 123.092 9.17372 121.318 9.17372C119.545 9.17372 118.653 10.356 118.508 12.2186Z" fill="#6F7779"/>
<path d="M140.424 11.4825V17.5332H139.169V11.6776C139.169 10.0493 138.383 9.19045 136.537 9.19045C135.712 9.19045 134.909 9.38563 134.156 9.70908C134.351 10.1719 134.462 10.7631 134.462 11.4825V17.5332H133.208V11.6442C133.208 9.90984 132.494 9.19045 130.575 9.19045C129.895 9.19045 129.126 9.27967 128.428 9.4414V17.5332H127.174V8.58259C128.373 8.25914 129.555 8.08069 130.704 8.08069C131.958 8.08069 132.89 8.31491 133.514 8.83354C134.501 8.37068 135.555 8.08069 136.648 8.08069C139.353 8.08069 140.424 9.31871 140.424 11.4825Z" fill="#6F7779"/>
<path d="M150.038 8.2926L146.045 18.5314C145.348 20.3382 144.467 21.1469 142.911 21.1469C142.643 21.1469 142.337 21.1134 142.086 21.0576C142.103 20.684 142.142 20.288 142.192 19.9646C142.37 19.9981 142.588 20.0371 142.783 20.0371C143.982 20.0371 144.54 19.5185 145.147 17.7451L141.299 8.2926H142.66L145.755 16.1501L148.711 8.2926H150.038Z" fill="#6F7779"/>
<path d="M13.6629 8.30926C13.635 7.65679 13.451 7.00431 13.1108 6.41876L10.1273 1.24918C9.89861 0.853232 9.74247 0.434981 9.65324 0L9.53055 0.21749C8.78885 1.49455 8.78885 3.07275 9.53055 4.35539L11.9174 8.49329C12.6535 9.77593 12.6535 11.3485 11.9174 12.6312L11.7947 12.8487C11.7055 12.4137 11.5493 11.9954 11.3207 11.5995L9.13461 7.81293L7.74044 5.39265C7.51179 4.99671 7.35565 4.57846 7.26642 4.14347L7.14373 4.36097C6.40761 5.63803 6.40761 7.20507 7.13816 8.48213L9.53613 12.6312C10.2778 13.9082 10.2778 15.4865 9.53613 16.7691L9.41344 16.9866C9.32421 16.5516 9.16807 16.1333 8.93942 15.7374L5.9559 10.5678C5.55438 9.8763 5.37035 9.09557 5.40381 8.32041C2.20837 9.15691 0 10.9303 0 12.9825C0 15.8378 4.26616 18.1521 9.53613 18.1521C14.8061 18.1521 19.0723 15.8378 19.0723 12.9825C19.0723 10.9303 16.8639 9.15691 13.6685 8.32041L13.6629 8.30926Z" fill="#EC0000"/>
<path d="M28.2489 0.680328V22H27.1057V0.680328H28.2489Z" fill="#6F7779"/>
</svg>
